<svg xmlns="http://www.w3.org/2000/svg" xmlns:xlink="http://www.w3.org/1999/xlink" width="800" zoomAndPan="magnify" viewBox="0 0 600 599.999999" height="800" preserveAspectRatio="xMidYMid meet" version="1.0"><defs><clipPath id="c8cd0fe9a9"><path d="M 6.492188 6.492188 L 593.507812 6.492188 L 593.507812 593.507812 L 6.492188 593.507812 Z M 6.492188 6.492188 " clip-rule="nonzero"/></clipPath><clipPath id="b6b6ef1ce2"><path d="M 300 6.492188 C 137.898438 6.492188 6.492188 137.898438 6.492188 300 C 6.492188 462.101562 137.898438 593.507812 300 593.507812 C 462.101562 593.507812 593.507812 462.101562 593.507812 300 C 593.507812 137.898438 462.101562 6.492188 300 6.492188 " clip-rule="nonzero"/></clipPath><clipPath id="68505dfc85"><path d="M 112 145 L 465 145 L 465 518.402344 L 112 518.402344 Z M 112 145 " clip-rule="nonzero"/></clipPath><clipPath id="ae150d4064"><path d="M 422 81.902344 L 437 81.902344 L 437 98 L 422 98 Z M 422 81.902344 " clip-rule="nonzero"/></clipPath></defs><g clip-path="url(#c8cd0fe9a9)"><g clip-path="url(#b6b6ef1ce2)"><path fill="#ffffff" d="M 6.492188 6.492188 L 593.507812 6.492188 L 593.507812 593.507812 L 6.492188 593.507812 Z M 6.492188 6.492188 " fill-opacity="1" fill-rule="nonzero"/></g></g><g clip-path="url(#68505dfc85)"><path fill="#000000" d="M 140.660156 152.304688 L 140.660156 340.902344 L 113.109375 402.898438 C 112.988281 403.164062 112.886719 403.4375 112.804688 403.71875 C 112.71875 403.996094 112.652344 404.28125 112.601562 404.570312 C 112.554688 404.855469 112.523438 405.148438 112.507812 405.4375 C 112.496094 405.730469 112.5 406.023438 112.523438 406.3125 C 112.546875 406.605469 112.589844 406.894531 112.648438 407.179688 C 112.707031 407.464844 112.78125 407.746094 112.878906 408.023438 C 112.972656 408.300781 113.082031 408.570312 113.210938 408.832031 C 113.335938 409.09375 113.480469 409.347656 113.640625 409.59375 C 113.800781 409.839844 113.972656 410.074219 114.160156 410.296875 C 114.347656 410.519531 114.550781 410.730469 114.765625 410.929688 C 114.980469 411.125 115.207031 411.308594 115.445312 411.480469 C 115.679688 411.652344 115.929688 411.804688 116.183594 411.945312 C 116.441406 412.082031 116.707031 412.207031 116.976562 412.3125 C 117.25 412.417969 117.527344 412.507812 117.808594 412.582031 C 118.09375 412.652344 118.378906 412.707031 118.667969 412.742188 C 118.960938 412.777344 119.25 412.796875 119.542969 412.796875 L 147.558594 412.796875 L 147.558594 462.078125 C 147.558594 464.015625 147.679688 465.945312 147.917969 467.863281 C 148.160156 469.785156 148.519531 471.683594 148.996094 473.5625 C 149.472656 475.4375 150.0625 477.277344 150.769531 479.078125 C 151.476562 480.882812 152.292969 482.632812 153.214844 484.335938 C 154.140625 486.035156 155.167969 487.671875 156.296875 489.246094 C 157.425781 490.816406 158.648438 492.316406 159.964844 493.734375 C 161.277344 495.15625 162.675781 496.488281 164.160156 497.734375 C 165.640625 498.980469 167.195312 500.128906 168.820312 501.179688 L 168.820312 518.402344 L 182.898438 518.402344 L 182.898438 497.28125 C 182.898438 496.660156 182.820312 496.054688 182.660156 495.457031 C 182.5 494.859375 182.265625 494.292969 181.957031 493.757812 C 181.648438 493.21875 181.273438 492.734375 180.839844 492.296875 C 180.402344 491.859375 179.914062 491.484375 179.378906 491.175781 C 178.058594 490.480469 176.789062 489.699219 175.574219 488.832031 C 174.359375 487.964844 173.207031 487.019531 172.117188 486 C 171.03125 484.976562 170.015625 483.886719 169.074219 482.726562 C 168.132812 481.566406 167.273438 480.351562 166.496094 479.074219 C 165.71875 477.800781 165.03125 476.480469 164.429688 475.109375 C 163.832031 473.742188 163.328125 472.339844 162.917969 470.90625 C 162.507812 469.46875 162.195312 468.011719 161.980469 466.535156 C 161.765625 465.058594 161.652344 463.570312 161.640625 462.078125 L 161.640625 405.757812 C 161.640625 405.289062 161.726562 404.839844 161.90625 404.410156 C 162.085938 403.976562 162.339844 403.597656 162.671875 403.265625 C 163 402.9375 163.378906 402.683594 163.8125 402.503906 C 164.242188 402.324219 164.691406 402.234375 165.160156 402.234375 C 165.625 402.234375 166.074219 402.324219 166.507812 402.503906 C 166.9375 402.683594 167.316406 402.9375 167.648438 403.265625 C 167.976562 403.597656 168.230469 403.976562 168.410156 404.410156 C 168.589844 404.839844 168.679688 405.289062 168.679688 405.757812 L 168.679688 426.878906 L 182.757812 426.878906 L 182.757812 391.675781 C 182.757812 391.207031 182.847656 390.761719 183.027344 390.328125 C 183.203125 389.898438 183.457031 389.515625 183.789062 389.1875 C 184.117188 388.855469 184.5 388.601562 184.929688 388.421875 C 185.363281 388.246094 185.8125 388.15625 186.277344 388.15625 C 186.746094 388.15625 187.191406 388.246094 187.625 388.421875 C 188.054688 388.601562 188.4375 388.855469 188.765625 389.1875 C 189.097656 389.515625 189.351562 389.898438 189.53125 390.328125 C 189.707031 390.761719 189.796875 391.207031 189.796875 391.675781 L 189.796875 426.878906 L 203.875 426.878906 L 203.875 377.59375 C 203.875 377.128906 203.964844 376.679688 204.144531 376.246094 C 204.324219 375.816406 204.578125 375.4375 204.90625 375.105469 C 205.238281 374.777344 205.617188 374.519531 206.050781 374.34375 C 206.480469 374.164062 206.929688 374.074219 207.394531 374.074219 C 207.863281 374.074219 208.3125 374.164062 208.742188 374.34375 C 209.175781 374.519531 209.554688 374.777344 209.886719 375.105469 C 210.214844 375.4375 210.46875 375.816406 210.648438 376.246094 C 210.828125 376.679688 210.914062 377.128906 210.914062 377.59375 L 210.914062 426.878906 L 224.996094 426.878906 L 224.996094 391.589844 C 225 391.125 225.09375 390.675781 225.277344 390.246094 C 225.460938 389.816406 225.722656 389.441406 226.054688 389.113281 C 226.390625 388.789062 226.773438 388.539062 227.207031 388.363281 C 227.640625 388.191406 228.089844 388.109375 228.558594 388.113281 C 229.023438 388.117188 229.472656 388.214844 229.902344 388.398438 C 230.328125 388.582031 230.707031 388.839844 231.035156 389.175781 C 231.359375 389.507812 231.609375 389.890625 231.78125 390.324219 C 231.957031 390.757812 232.039062 391.207031 232.035156 391.675781 L 232.035156 448 C 232.035156 448.667969 232.128906 449.328125 232.316406 449.972656 C 232.503906 450.617188 232.777344 451.222656 233.140625 451.789062 C 233.5 452.355469 233.933594 452.859375 234.4375 453.300781 C 234.945312 453.742188 235.5 454.105469 236.109375 454.390625 C 236.71875 454.671875 237.355469 454.863281 238.019531 454.964844 C 238.683594 455.0625 239.347656 455.070312 240.011719 454.980469 C 240.679688 454.890625 241.320312 454.710938 241.933594 454.4375 C 242.546875 454.164062 243.109375 453.8125 243.621094 453.378906 L 254.300781 444.335938 C 254.742188 443.964844 255.128906 443.542969 255.46875 443.078125 C 255.976562 442.359375 256.621094 441.800781 257.402344 441.398438 C 258.183594 440.996094 259.011719 440.792969 259.890625 440.796875 C 260.46875 440.777344 261.035156 440.851562 261.589844 441.015625 C 262.144531 441.179688 262.660156 441.429688 263.132812 441.761719 C 263.605469 442.09375 264.015625 442.492188 264.359375 442.957031 C 264.707031 443.421875 264.96875 443.929688 265.148438 444.476562 C 265.582031 445.742188 265.582031 447.003906 265.148438 448.265625 L 245.988281 481.511719 C 245.363281 482.8125 244.570312 484.003906 243.609375 485.085938 C 242.648438 486.164062 241.558594 487.089844 240.335938 487.863281 C 239.117188 488.636719 237.8125 489.222656 236.425781 489.628906 C 235.035156 490.03125 233.621094 490.234375 232.175781 490.238281 C 231.714844 490.238281 231.253906 490.285156 230.800781 490.375 C 230.347656 490.464844 229.910156 490.597656 229.480469 490.777344 C 229.054688 490.953125 228.648438 491.167969 228.265625 491.425781 C 227.878906 491.683594 227.523438 491.976562 227.199219 492.300781 C 226.871094 492.628906 226.578125 492.984375 226.320312 493.367188 C 226.066406 493.753906 225.847656 494.160156 225.671875 494.585938 C 225.496094 495.011719 225.359375 495.453125 225.269531 495.90625 C 225.179688 496.359375 225.136719 496.816406 225.136719 497.28125 L 225.136719 518.402344 L 239.214844 518.402344 L 239.214844 503.476562 C 241.277344 502.980469 243.265625 502.261719 245.171875 501.328125 C 247.078125 500.394531 248.859375 499.265625 250.519531 497.9375 C 252.175781 496.613281 253.671875 495.121094 255 493.46875 C 256.332031 491.8125 257.464844 490.03125 258.40625 488.128906 L 277.582031 454.820312 C 278.667969 452.53125 279.296875 450.121094 279.464844 447.589844 C 279.632812 445.0625 279.328125 442.589844 278.550781 440.175781 C 278.421875 439.78125 278.277344 439.390625 278.121094 439.007812 C 277.96875 438.621094 277.800781 438.242188 277.621094 437.867188 C 277.441406 437.492188 277.25 437.121094 277.046875 436.761719 C 276.84375 436.398438 276.628906 436.042969 276.40625 435.691406 C 276.179688 435.34375 275.941406 435 275.695312 434.667969 C 275.449219 434.332031 275.191406 434.007812 274.921875 433.691406 C 274.65625 433.371094 274.378906 433.0625 274.089844 432.765625 C 273.800781 432.464844 273.503906 432.171875 273.199219 431.890625 C 272.894531 431.613281 272.578125 431.339844 272.253906 431.078125 C 271.933594 430.816406 271.601562 430.566406 271.261719 430.328125 C 270.921875 430.085938 270.574219 429.859375 270.222656 429.640625 C 269.867188 429.421875 269.507812 429.214844 269.140625 429.019531 C 268.773438 428.824219 268.402344 428.644531 268.023438 428.472656 C 267.644531 428.300781 267.261719 428.140625 266.871094 427.992188 C 266.484375 427.847656 266.089844 427.710938 265.691406 427.589844 C 265.296875 427.46875 264.894531 427.359375 264.492188 427.261719 C 264.085938 427.167969 263.679688 427.082031 263.269531 427.011719 C 262.859375 426.941406 262.449219 426.882812 262.035156 426.839844 C 261.625 426.796875 261.210938 426.765625 260.792969 426.746094 C 260.378906 426.726562 259.964844 426.722656 259.546875 426.730469 C 259.132812 426.738281 258.71875 426.761719 258.304688 426.796875 C 257.890625 426.828125 257.476562 426.878906 257.066406 426.9375 C 256.65625 427 256.246094 427.074219 255.839844 427.160156 C 255.433594 427.246094 255.03125 427.347656 254.628906 427.460938 C 254.230469 427.570312 253.835938 427.695312 253.441406 427.835938 C 253.050781 427.972656 252.664062 428.121094 252.28125 428.285156 C 251.898438 428.445312 251.519531 428.621094 251.148438 428.808594 C 250.777344 428.992188 250.414062 429.191406 250.054688 429.402344 C 249.695312 429.609375 249.34375 429.832031 249 430.0625 C 248.652344 430.296875 248.316406 430.539062 247.988281 430.792969 C 247.65625 431.042969 247.335938 431.308594 247.023438 431.582031 C 246.710938 431.855469 246.40625 432.140625 246.113281 432.433594 L 246.113281 412.796875 L 330.871094 412.796875 L 330.871094 432.417969 C 330.574219 432.125 330.269531 431.839844 329.957031 431.566406 C 329.644531 431.292969 329.320312 431.03125 328.992188 430.777344 C 328.660156 430.523438 328.324219 430.28125 327.976562 430.046875 C 327.632812 429.816406 327.277344 429.597656 326.917969 429.386719 C 326.558594 429.175781 326.191406 428.980469 325.820312 428.792969 C 325.449219 428.605469 325.070312 428.433594 324.6875 428.269531 C 324.304688 428.109375 323.914062 427.960938 323.523438 427.820312 C 323.128906 427.683594 322.734375 427.558594 322.332031 427.449219 C 321.929688 427.335938 321.527344 427.238281 321.121094 427.152344 C 320.714844 427.0625 320.304688 426.992188 319.890625 426.929688 C 319.480469 426.871094 319.066406 426.824219 318.652344 426.789062 C 318.238281 426.757812 317.820312 426.734375 317.40625 426.726562 C 316.988281 426.71875 316.574219 426.726562 316.15625 426.746094 C 315.742188 426.765625 315.328125 426.796875 314.914062 426.84375 C 314.5 426.886719 314.085938 426.945312 313.675781 427.019531 C 313.265625 427.089844 312.859375 427.175781 312.457031 427.273438 C 312.050781 427.371094 311.648438 427.480469 311.253906 427.605469 C 310.855469 427.726562 310.460938 427.863281 310.074219 428.011719 C 309.683594 428.160156 309.300781 428.320312 308.921875 428.492188 C 308.542969 428.664062 308.167969 428.851562 307.800781 429.046875 C 307.4375 429.242188 307.074219 429.449219 306.722656 429.671875 C 306.367188 429.890625 306.023438 430.121094 305.683594 430.363281 C 305.34375 430.601562 305.011719 430.855469 304.691406 431.117188 C 304.367188 431.378906 304.050781 431.652344 303.746094 431.9375 C 303.441406 432.21875 303.144531 432.511719 302.859375 432.8125 C 302.570312 433.113281 302.292969 433.421875 302.027344 433.742188 C 301.757812 434.0625 301.503906 434.390625 301.257812 434.726562 C 301.007812 435.058594 300.773438 435.402344 300.550781 435.753906 C 300.324219 436.105469 300.113281 436.460938 299.910156 436.824219 C 299.707031 437.191406 299.519531 437.558594 299.339844 437.9375 C 299.160156 438.3125 298.996094 438.695312 298.839844 439.082031 C 298.6875 439.46875 298.546875 439.859375 298.417969 440.253906 C 297.632812 442.75 297.347656 445.304688 297.566406 447.914062 C 297.78125 450.519531 298.480469 452.992188 299.664062 455.328125 L 318.359375 487.710938 C 319.300781 489.660156 320.441406 491.480469 321.78125 493.171875 C 323.121094 494.867188 324.628906 496.398438 326.304688 497.757812 C 327.984375 499.121094 329.789062 500.285156 331.722656 501.25 C 333.65625 502.214844 335.671875 502.957031 337.769531 503.476562 L 337.769531 518.402344 L 351.847656 518.402344 L 351.847656 497.28125 C 351.847656 496.816406 351.800781 496.359375 351.710938 495.90625 C 351.621094 495.453125 351.488281 495.011719 351.3125 494.585938 C 351.132812 494.160156 350.917969 493.753906 350.660156 493.367188 C 350.402344 492.984375 350.113281 492.628906 349.785156 492.300781 C 349.457031 491.976562 349.101562 491.683594 348.71875 491.425781 C 348.335938 491.167969 347.929688 490.953125 347.5 490.777344 C 347.074219 490.597656 346.632812 490.464844 346.179688 490.375 C 345.726562 490.285156 345.269531 490.238281 344.808594 490.238281 C 343.324219 490.222656 341.871094 490 340.453125 489.566406 C 339.03125 489.136719 337.703125 488.515625 336.457031 487.707031 C 335.214844 486.894531 334.109375 485.925781 333.144531 484.800781 C 332.175781 483.675781 331.386719 482.4375 330.769531 481.085938 L 312.117188 448.738281 C 311.800781 448.078125 311.613281 447.382812 311.5625 446.652344 C 311.511719 445.925781 311.597656 445.210938 311.820312 444.511719 C 311.984375 444.035156 312.210938 443.585938 312.496094 443.171875 C 312.78125 442.753906 313.121094 442.382812 313.507812 442.058594 C 313.898438 441.734375 314.320312 441.46875 314.785156 441.261719 C 315.246094 441.054688 315.726562 440.914062 316.226562 440.839844 C 316.726562 440.765625 317.226562 440.757812 317.730469 440.820312 C 318.230469 440.886719 318.714844 441.015625 319.179688 441.210938 C 319.648438 441.40625 320.078125 441.660156 320.476562 441.976562 C 320.871094 442.289062 321.21875 442.652344 321.515625 443.0625 C 321.851562 443.53125 322.242188 443.949219 322.683594 444.324219 L 333.363281 453.363281 C 333.875 453.796875 334.4375 454.148438 335.050781 454.421875 C 335.660156 454.695312 336.300781 454.875 336.964844 454.964844 C 337.628906 455.054688 338.292969 455.050781 338.957031 454.949219 C 339.621094 454.851562 340.257812 454.660156 340.867188 454.378906 C 341.476562 454.097656 342.03125 453.734375 342.539062 453.292969 C 343.042969 452.851562 343.476562 452.347656 343.839844 451.785156 C 344.199219 451.21875 344.476562 450.613281 344.664062 449.96875 C 344.851562 449.328125 344.949219 448.667969 344.949219 448 L 344.949219 391.675781 C 344.941406 391.207031 345.027344 390.757812 345.199219 390.324219 C 345.375 389.890625 345.625 389.507812 345.949219 389.175781 C 346.277344 388.839844 346.652344 388.582031 347.082031 388.398438 C 347.511719 388.214844 347.960938 388.117188 348.425781 388.113281 C 348.894531 388.109375 349.34375 388.191406 349.777344 388.363281 C 350.210938 388.539062 350.59375 388.789062 350.925781 389.113281 C 351.261719 389.441406 351.519531 389.816406 351.703125 390.246094 C 351.886719 390.675781 351.984375 391.125 351.988281 391.589844 L 351.988281 426.878906 L 366.066406 426.878906 L 366.066406 377.59375 C 366.066406 377.128906 366.15625 376.679688 366.335938 376.246094 C 366.511719 375.816406 366.769531 375.4375 367.097656 375.105469 C 367.429688 374.777344 367.808594 374.519531 368.238281 374.34375 C 368.671875 374.164062 369.121094 374.074219 369.585938 374.074219 C 370.054688 374.074219 370.503906 374.164062 370.933594 374.34375 C 371.363281 374.519531 371.746094 374.777344 372.074219 375.105469 C 372.40625 375.4375 372.660156 375.816406 372.839844 376.246094 C 373.015625 376.679688 373.105469 377.128906 373.105469 377.59375 L 373.105469 426.878906 L 387.1875 426.878906 L 387.1875 391.675781 C 387.1875 391.207031 387.273438 390.761719 387.453125 390.328125 C 387.632812 389.898438 387.886719 389.515625 388.214844 389.1875 C 388.546875 388.855469 388.925781 388.601562 389.359375 388.421875 C 389.789062 388.246094 390.238281 388.15625 390.707031 388.15625 C 391.171875 388.15625 391.621094 388.246094 392.050781 388.421875 C 392.484375 388.601562 392.863281 388.855469 393.195312 389.1875 C 393.523438 389.515625 393.777344 389.898438 393.957031 390.328125 C 394.136719 390.761719 394.226562 391.207031 394.226562 391.675781 L 394.226562 426.878906 L 408.304688 426.878906 L 408.304688 405.757812 C 408.304688 405.289062 408.394531 404.839844 408.570312 404.410156 C 408.75 403.976562 409.003906 403.597656 409.335938 403.265625 C 409.664062 402.9375 410.046875 402.683594 410.476562 402.503906 C 410.910156 402.324219 411.355469 402.234375 411.824219 402.234375 C 412.289062 402.234375 412.738281 402.324219 413.171875 402.503906 C 413.601562 402.683594 413.984375 402.9375 414.3125 403.265625 C 414.644531 403.597656 414.898438 403.976562 415.074219 404.410156 C 415.253906 404.839844 415.34375 405.289062 415.34375 405.757812 L 415.34375 462.078125 C 415.332031 463.570312 415.214844 465.058594 415.003906 466.535156 C 414.789062 468.011719 414.476562 469.46875 414.066406 470.90625 C 413.65625 472.339844 413.152344 473.742188 412.550781 475.109375 C 411.953125 476.480469 411.265625 477.800781 410.488281 479.074219 C 409.710938 480.351562 408.851562 481.566406 407.910156 482.726562 C 406.96875 483.886719 405.953125 484.976562 404.867188 486 C 403.777344 487.019531 402.625 487.964844 401.410156 488.832031 C 400.195312 489.699219 398.925781 490.480469 397.605469 491.175781 C 397.070312 491.484375 396.582031 491.859375 396.144531 492.296875 C 395.707031 492.734375 395.335938 493.21875 395.027344 493.757812 C 394.71875 494.292969 394.484375 494.859375 394.324219 495.457031 C 394.164062 496.054688 394.082031 496.660156 394.085938 497.28125 L 394.085938 518.402344 L 408.164062 518.402344 L 408.164062 501.179688 C 409.789062 500.128906 411.34375 498.980469 412.824219 497.734375 C 414.304688 496.488281 415.703125 495.15625 417.019531 493.734375 C 418.335938 492.316406 419.558594 490.816406 420.6875 489.246094 C 421.816406 487.671875 422.84375 486.035156 423.765625 484.335938 C 424.691406 482.632812 425.507812 480.882812 426.214844 479.078125 C 426.917969 477.277344 427.511719 475.4375 427.988281 473.5625 C 428.464844 471.683594 428.824219 469.785156 429.0625 467.863281 C 429.304688 465.945312 429.421875 464.015625 429.421875 462.078125 L 429.421875 412.796875 L 457.441406 412.796875 C 457.730469 412.796875 458.023438 412.777344 458.3125 412.742188 C 458.601562 412.707031 458.890625 412.652344 459.171875 412.582031 C 459.457031 412.507812 459.734375 412.417969 460.003906 412.3125 C 460.277344 412.207031 460.542969 412.082031 460.796875 411.945312 C 461.054688 411.804688 461.300781 411.652344 461.539062 411.480469 C 461.777344 411.308594 462.003906 411.125 462.21875 410.929688 C 462.433594 410.730469 462.632812 410.519531 462.820312 410.296875 C 463.011719 410.074219 463.183594 409.839844 463.34375 409.59375 C 463.503906 409.347656 463.644531 409.09375 463.773438 408.832031 C 463.902344 408.570312 464.011719 408.300781 464.105469 408.023438 C 464.199219 407.746094 464.277344 407.464844 464.335938 407.179688 C 464.394531 406.894531 464.433594 406.605469 464.457031 406.3125 C 464.480469 406.023438 464.488281 405.730469 464.472656 405.4375 C 464.460938 405.148438 464.429688 404.855469 464.378906 404.570312 C 464.332031 404.28125 464.265625 403.996094 464.179688 403.71875 C 464.09375 403.4375 463.992188 403.164062 463.875 402.898438 L 436.320312 340.902344 L 436.320312 271.988281 L 422.242188 271.988281 L 422.242188 335.351562 L 154.742188 335.351562 L 154.742188 159.34375 L 358.886719 159.34375 L 358.886719 145.265625 L 147.699219 145.265625 C 147.238281 145.265625 146.78125 145.308594 146.328125 145.398438 C 145.875 145.488281 145.433594 145.625 145.007812 145.800781 C 144.578125 145.976562 144.175781 146.195312 143.789062 146.449219 C 143.40625 146.707031 143.050781 147 142.722656 147.328125 C 142.394531 147.652344 142.105469 148.007812 141.847656 148.394531 C 141.589844 148.777344 141.375 149.183594 141.195312 149.609375 C 141.019531 150.039062 140.886719 150.476562 140.796875 150.929688 C 140.707031 151.382812 140.660156 151.84375 140.660156 152.304688 Z M 424.707031 349.433594 L 446.605469 398.714844 L 427.929688 398.714844 C 427.53125 397.785156 427.054688 396.894531 426.5 396.042969 C 425.941406 395.195312 425.320312 394.398438 424.625 393.660156 C 423.929688 392.921875 423.179688 392.246094 422.367188 391.636719 C 421.554688 391.027344 420.695312 390.496094 419.792969 390.039062 C 418.886719 389.578125 417.949219 389.203125 416.976562 388.90625 C 416.007812 388.613281 415.019531 388.402344 414.011719 388.28125 C 413.003906 388.160156 411.996094 388.125 410.980469 388.179688 C 409.96875 388.234375 408.96875 388.375 407.980469 388.605469 C 407.800781 387.597656 407.539062 386.613281 407.1875 385.648438 C 406.835938 384.6875 406.40625 383.761719 405.890625 382.875 C 405.378906 381.988281 404.796875 381.152344 404.136719 380.367188 C 403.480469 379.582031 402.757812 378.859375 401.972656 378.203125 C 401.191406 377.542969 400.355469 376.957031 399.46875 376.441406 C 398.582031 375.929688 397.65625 375.496094 396.695312 375.144531 C 395.734375 374.792969 394.75 374.527344 393.742188 374.347656 C 392.730469 374.167969 391.714844 374.078125 390.691406 374.074219 C 389.394531 374.082031 388.117188 374.230469 386.855469 374.527344 C 386.679688 373.515625 386.414062 372.53125 386.066406 371.566406 C 385.714844 370.605469 385.285156 369.679688 384.773438 368.792969 C 384.261719 367.90625 383.675781 367.070312 383.019531 366.285156 C 382.359375 365.5 381.640625 364.777344 380.855469 364.117188 C 380.070312 363.460938 379.234375 362.875 378.347656 362.359375 C 377.460938 361.847656 376.539062 361.417969 375.574219 361.066406 C 374.613281 360.714844 373.628906 360.453125 372.617188 360.273438 C 371.609375 360.097656 370.59375 360.007812 369.570312 360.007812 C 368.546875 360.007812 367.527344 360.097656 366.519531 360.273438 C 365.511719 360.453125 364.527344 360.714844 363.5625 361.066406 C 362.601562 361.417969 361.675781 361.847656 360.789062 362.359375 C 359.902344 362.875 359.066406 363.460938 358.28125 364.117188 C 357.5 364.777344 356.777344 365.5 356.121094 366.285156 C 355.460938 367.070312 354.875 367.90625 354.367188 368.792969 C 353.855469 369.679688 353.421875 370.605469 353.074219 371.566406 C 352.722656 372.53125 352.460938 373.515625 352.285156 374.527344 C 351.644531 374.378906 350.996094 374.269531 350.34375 374.195312 C 349.6875 374.121094 349.035156 374.082031 348.375 374.082031 C 347.71875 374.082031 347.0625 374.117188 346.410156 374.191406 C 345.757812 374.265625 345.109375 374.375 344.46875 374.523438 C 343.828125 374.667969 343.195312 374.851562 342.574219 375.070312 C 341.957031 375.285156 341.347656 375.539062 340.757812 375.824219 C 340.164062 376.109375 339.589844 376.429688 339.035156 376.78125 C 338.480469 377.128906 337.945312 377.511719 337.429688 377.921875 C 336.917969 378.332031 336.429688 378.773438 335.964844 379.238281 C 335.5 379.703125 335.066406 380.195312 334.65625 380.710938 C 334.246094 381.226562 333.871094 381.761719 333.523438 382.320312 C 333.171875 382.878906 332.859375 383.453125 332.574219 384.046875 C 332.292969 384.640625 332.042969 385.25 331.828125 385.871094 C 331.613281 386.492188 331.433594 387.125 331.289062 387.765625 C 331.148438 388.40625 331.039062 389.054688 330.96875 389.707031 C 330.898438 390.363281 330.867188 391.019531 330.871094 391.675781 L 330.871094 398.714844 L 246.113281 398.714844 L 246.113281 391.675781 C 246.117188 391.019531 246.082031 390.363281 246.015625 389.707031 C 245.945312 389.054688 245.835938 388.40625 245.695312 387.765625 C 245.550781 387.121094 245.371094 386.492188 245.15625 385.867188 C 244.941406 385.246094 244.695312 384.640625 244.410156 384.046875 C 244.128906 383.453125 243.8125 382.875 243.464844 382.316406 C 243.117188 381.757812 242.738281 381.222656 242.328125 380.707031 C 241.921875 380.191406 241.484375 379.699219 241.019531 379.234375 C 240.558594 378.769531 240.070312 378.328125 239.554688 377.917969 C 239.042969 377.507812 238.507812 377.125 237.949219 376.773438 C 237.394531 376.421875 236.820312 376.105469 236.226562 375.820312 C 235.636719 375.53125 235.03125 375.28125 234.410156 375.0625 C 233.789062 374.84375 233.15625 374.664062 232.515625 374.515625 C 231.875 374.371094 231.226562 374.257812 230.574219 374.183594 C 229.921875 374.113281 229.265625 374.074219 228.609375 374.074219 C 227.949219 374.074219 227.292969 374.113281 226.640625 374.1875 C 225.988281 374.261719 225.339844 374.371094 224.699219 374.519531 C 224.523438 373.507812 224.257812 372.523438 223.910156 371.5625 C 223.558594 370.597656 223.128906 369.671875 222.617188 368.785156 C 222.105469 367.898438 221.523438 367.0625 220.863281 366.277344 C 220.207031 365.492188 219.484375 364.769531 218.699219 364.109375 C 217.914062 363.453125 217.082031 362.867188 216.195312 362.355469 C 215.304688 361.839844 214.382812 361.410156 213.417969 361.058594 C 212.457031 360.707031 211.472656 360.445312 210.464844 360.265625 C 209.453125 360.089844 208.4375 360 207.414062 360 C 206.390625 360 205.375 360.089844 204.363281 360.265625 C 203.355469 360.445312 202.371094 360.707031 201.40625 361.058594 C 200.445312 361.410156 199.519531 361.839844 198.632812 362.355469 C 197.746094 362.867188 196.910156 363.453125 196.128906 364.109375 C 195.34375 364.769531 194.621094 365.492188 193.964844 366.277344 C 193.304688 367.0625 192.722656 367.898438 192.210938 368.785156 C 191.699219 369.671875 191.265625 370.597656 190.917969 371.5625 C 190.570312 372.523438 190.304688 373.507812 190.128906 374.519531 C 188.867188 374.222656 187.585938 374.074219 186.292969 374.066406 C 185.265625 374.070312 184.25 374.160156 183.242188 374.339844 C 182.234375 374.519531 181.25 374.785156 180.289062 375.136719 C 179.324219 375.488281 178.402344 375.921875 177.515625 376.4375 C 176.628906 376.949219 175.792969 377.535156 175.007812 378.195312 C 174.226562 378.851562 173.503906 379.574219 172.847656 380.359375 C 172.1875 381.144531 171.601562 381.980469 171.089844 382.867188 C 170.578125 383.753906 170.148438 384.679688 169.796875 385.640625 C 169.445312 386.605469 169.179688 387.589844 169.003906 388.597656 C 168.015625 388.371094 167.011719 388.226562 166 388.175781 C 164.988281 388.121094 163.976562 388.152344 162.96875 388.277344 C 161.960938 388.398438 160.972656 388.605469 160.003906 388.902344 C 159.03125 389.195312 158.09375 389.574219 157.191406 390.03125 C 156.285156 390.492188 155.425781 391.027344 154.613281 391.632812 C 153.804688 392.242188 153.050781 392.917969 152.355469 393.65625 C 151.664062 394.398438 151.039062 395.191406 150.484375 396.042969 C 149.929688 396.890625 149.453125 397.785156 149.050781 398.714844 L 130.375 398.714844 L 152.277344 349.433594 Z M 424.707031 349.433594 " fill-opacity="1" fill-rule="nonzero"/></g><path fill="#000000" d="M 253.1875 220.195312 L 217.992188 241.316406 C 217.730469 241.472656 217.484375 241.644531 217.246094 241.832031 C 217.007812 242.019531 216.785156 242.222656 216.574219 242.4375 C 216.363281 242.65625 216.167969 242.882812 215.984375 243.125 C 215.804688 243.367188 215.640625 243.621094 215.492188 243.882812 C 215.34375 244.144531 215.210938 244.417969 215.097656 244.699219 C 214.984375 244.976562 214.886719 245.265625 214.808594 245.558594 C 214.734375 245.847656 214.675781 246.144531 214.636719 246.445312 C 214.597656 246.746094 214.578125 247.046875 214.578125 247.347656 C 214.578125 247.652344 214.597656 247.953125 214.636719 248.253906 C 214.675781 248.550781 214.734375 248.847656 214.808594 249.140625 C 214.886719 249.433594 214.984375 249.71875 215.097656 250 C 215.210938 250.28125 215.34375 250.550781 215.492188 250.816406 C 215.640625 251.078125 215.804688 251.332031 215.984375 251.574219 C 216.167969 251.816406 216.363281 252.042969 216.574219 252.261719 C 216.785156 252.476562 217.007812 252.679688 217.246094 252.867188 C 217.484375 253.054688 217.730469 253.226562 217.992188 253.382812 L 253.1875 274.503906 L 260.4375 262.4375 L 235.300781 247.347656 L 260.4375 232.261719 Z M 253.1875 220.195312 " fill-opacity="1" fill-rule="nonzero"/><path fill="#000000" d="M 323.792969 274.503906 L 358.992188 253.382812 C 359.25 253.226562 359.5 253.054688 359.738281 252.867188 C 359.972656 252.679688 360.199219 252.476562 360.410156 252.261719 C 360.621094 252.042969 360.816406 251.816406 360.996094 251.574219 C 361.179688 251.332031 361.34375 251.078125 361.492188 250.816406 C 361.640625 250.550781 361.773438 250.28125 361.886719 250 C 362 249.71875 362.09375 249.433594 362.171875 249.140625 C 362.25 248.847656 362.308594 248.550781 362.347656 248.253906 C 362.386719 247.953125 362.40625 247.652344 362.40625 247.347656 C 362.40625 247.046875 362.386719 246.746094 362.347656 246.445312 C 362.308594 246.144531 362.25 245.847656 362.171875 245.558594 C 362.09375 245.265625 362 244.976562 361.886719 244.699219 C 361.773438 244.417969 361.640625 244.144531 361.492188 243.882812 C 361.34375 243.621094 361.179688 243.367188 360.996094 243.125 C 360.816406 242.882812 360.621094 242.65625 360.410156 242.4375 C 360.199219 242.222656 359.972656 242.019531 359.738281 241.832031 C 359.5 241.644531 359.25 241.472656 358.992188 241.316406 L 323.792969 220.195312 L 316.542969 232.261719 L 341.683594 247.347656 L 316.542969 262.4375 Z M 323.792969 274.503906 " fill-opacity="1" fill-rule="nonzero"/><path fill="#000000" d="M 271.339844 273.039062 L 292.460938 216.714844 L 305.648438 221.664062 L 284.53125 277.984375 Z M 271.339844 273.039062 " fill-opacity="1" fill-rule="nonzero"/><path fill="#000000" d="M 375.78125 159.261719 C 375.785156 161.542969 375.933594 163.820312 376.226562 166.082031 C 376.523438 168.347656 376.960938 170.585938 377.546875 172.792969 C 378.128906 175 378.851562 177.160156 379.714844 179.277344 C 380.574219 181.390625 381.570312 183.441406 382.695312 185.429688 C 383.824219 187.417969 385.070312 189.324219 386.441406 191.148438 C 387.816406 192.976562 389.296875 194.707031 390.894531 196.339844 C 392.488281 197.976562 394.179688 199.5 395.972656 200.917969 C 397.761719 202.332031 399.636719 203.628906 401.59375 204.804688 L 401.59375 226.460938 C 401.59375 227.367188 401.640625 228.273438 401.730469 229.175781 C 401.816406 230.078125 401.949219 230.972656 402.128906 231.863281 C 402.304688 232.75 402.523438 233.628906 402.789062 234.5 C 403.050781 235.367188 403.355469 236.21875 403.703125 237.058594 C 404.050781 237.894531 404.4375 238.714844 404.863281 239.511719 C 405.292969 240.3125 405.757812 241.089844 406.261719 241.84375 C 406.765625 242.597656 407.304688 243.324219 407.878906 244.027344 C 408.457031 244.726562 409.0625 245.398438 409.703125 246.039062 C 410.347656 246.679688 411.015625 247.289062 411.71875 247.863281 C 412.417969 248.441406 413.144531 248.980469 413.898438 249.484375 C 414.652344 249.988281 415.429688 250.453125 416.230469 250.878906 C 417.03125 251.308594 417.847656 251.695312 418.6875 252.042969 C 419.523438 252.390625 420.378906 252.695312 421.246094 252.957031 C 422.113281 253.222656 422.992188 253.441406 423.878906 253.617188 C 424.769531 253.796875 425.664062 253.929688 426.570312 254.015625 C 427.472656 254.105469 428.375 254.148438 429.28125 254.148438 C 430.1875 254.148438 431.09375 254.105469 431.996094 254.015625 C 432.898438 253.929688 433.792969 253.796875 434.683594 253.617188 C 435.574219 253.441406 436.453125 253.222656 437.320312 252.957031 C 438.1875 252.695312 439.039062 252.390625 439.878906 252.042969 C 440.714844 251.695312 441.535156 251.308594 442.332031 250.878906 C 443.132812 250.453125 443.910156 249.988281 444.664062 249.484375 C 445.417969 248.980469 446.144531 248.441406 446.847656 247.863281 C 447.546875 247.289062 448.21875 246.679688 448.859375 246.039062 C 449.5 245.398438 450.109375 244.726562 450.683594 244.027344 C 451.257812 243.324219 451.796875 242.597656 452.300781 241.84375 C 452.804688 241.089844 453.273438 240.3125 453.699219 239.511719 C 454.125 238.714844 454.515625 237.894531 454.859375 237.058594 C 455.207031 236.21875 455.511719 235.367188 455.777344 234.5 C 456.039062 233.628906 456.257812 232.75 456.4375 231.863281 C 456.613281 230.972656 456.746094 230.078125 456.835938 229.175781 C 456.925781 228.273438 456.96875 227.367188 456.96875 226.460938 L 456.96875 204.804688 C 458.21875 204.042969 459.4375 203.234375 460.621094 202.375 C 461.808594 201.515625 462.953125 200.609375 464.066406 199.65625 C 465.175781 198.699219 466.246094 197.703125 467.273438 196.660156 C 468.300781 195.621094 469.285156 194.535156 470.226562 193.414062 C 471.164062 192.292969 472.054688 191.132812 472.902344 189.9375 C 473.746094 188.742188 474.539062 187.511719 475.28125 186.253906 C 476.027344 184.992188 476.71875 183.703125 477.355469 182.382812 C 477.992188 181.066406 478.574219 179.726562 479.105469 178.359375 C 479.632812 176.996094 480.101562 175.609375 480.515625 174.207031 C 480.929688 172.800781 481.285156 171.382812 481.582031 169.949219 C 481.882812 168.515625 482.121094 167.074219 482.300781 165.621094 C 482.476562 164.167969 482.597656 162.710938 482.65625 161.246094 C 482.71875 159.785156 482.714844 158.320312 482.65625 156.859375 C 482.59375 155.394531 482.476562 153.9375 482.296875 152.484375 C 482.113281 151.03125 481.875 149.589844 481.578125 148.15625 C 481.277344 146.722656 480.921875 145.304688 480.507812 143.902344 C 480.09375 142.496094 479.621094 141.113281 479.089844 139.746094 C 478.5625 138.382812 477.980469 137.039062 477.339844 135.722656 C 476.703125 134.40625 476.011719 133.117188 475.265625 131.855469 C 474.523438 130.597656 473.726562 129.367188 472.882812 128.171875 C 472.035156 126.976562 471.144531 125.820312 470.203125 124.699219 C 469.261719 123.574219 468.277344 122.496094 467.25 121.453125 C 466.222656 120.414062 465.152344 119.414062 464.039062 118.460938 C 462.929688 117.507812 461.78125 116.601562 460.597656 115.742188 C 459.410156 114.882812 458.191406 114.074219 456.941406 113.316406 C 455.6875 112.558594 454.410156 111.851562 453.097656 111.195312 C 451.789062 110.542969 450.453125 109.945312 449.097656 109.398438 C 447.738281 108.855469 446.359375 108.367188 444.960938 107.9375 C 443.5625 107.503906 442.148438 107.132812 440.71875 106.816406 C 439.289062 106.5 437.847656 106.246094 436.398438 106.046875 C 434.945312 105.851562 433.492188 105.714844 432.027344 105.636719 C 430.566406 105.558594 429.105469 105.542969 427.640625 105.585938 C 425.925781 105.648438 424.214844 105.792969 422.507812 106.019531 C 420.804688 106.25 419.117188 106.558594 417.441406 106.945312 C 415.765625 107.335938 414.113281 107.804688 412.484375 108.351562 C 410.855469 108.898438 409.253906 109.523438 407.683594 110.222656 C 406.117188 110.921875 404.582031 111.695312 403.085938 112.542969 C 401.589844 113.390625 400.140625 114.308594 398.730469 115.296875 C 397.324219 116.28125 395.964844 117.332031 394.660156 118.449219 C 393.351562 119.566406 392.101562 120.742188 390.90625 121.980469 C 389.710938 123.214844 388.578125 124.507812 387.507812 125.851562 C 386.4375 127.195312 385.433594 128.589844 384.496094 130.03125 C 383.554688 131.472656 382.691406 132.953125 381.894531 134.480469 C 381.097656 136.003906 380.378906 137.5625 379.730469 139.15625 C 379.085938 140.746094 378.515625 142.367188 378.027344 144.015625 C 377.535156 145.664062 377.125 147.332031 376.792969 149.019531 C 376.460938 150.703125 376.210938 152.402344 376.042969 154.113281 C 375.871094 155.824219 375.785156 157.542969 375.78125 159.261719 Z M 442.890625 226.460938 C 442.890625 227.355469 442.800781 228.238281 442.628906 229.117188 C 442.453125 229.992188 442.195312 230.84375 441.855469 231.667969 C 441.511719 232.492188 441.09375 233.277344 440.597656 234.019531 C 440.101562 234.765625 439.535156 235.453125 438.902344 236.082031 C 438.273438 236.714844 437.585938 237.28125 436.84375 237.777344 C 436.097656 238.273438 435.316406 238.691406 434.488281 239.035156 C 433.664062 239.375 432.8125 239.632812 431.9375 239.808594 C 431.058594 239.980469 430.175781 240.070312 429.28125 240.070312 C 428.386719 240.070312 427.503906 239.980469 426.628906 239.808594 C 425.75 239.632812 424.898438 239.375 424.074219 239.035156 C 423.25 238.691406 422.464844 238.273438 421.722656 237.777344 C 420.980469 237.28125 420.292969 236.714844 419.660156 236.082031 C 419.027344 235.453125 418.464844 234.765625 417.96875 234.019531 C 417.472656 233.277344 417.050781 232.492188 416.710938 231.667969 C 416.367188 230.84375 416.109375 229.992188 415.9375 229.117188 C 415.761719 228.238281 415.675781 227.355469 415.675781 226.460938 L 415.675781 218.011719 L 442.890625 218.011719 Z M 428.0625 119.664062 C 428.472656 119.664062 428.886719 119.664062 429.296875 119.664062 C 430.394531 119.667969 431.492188 119.71875 432.589844 119.8125 C 433.683594 119.90625 434.773438 120.046875 435.855469 120.234375 C 436.941406 120.421875 438.011719 120.652344 439.078125 120.925781 C 440.140625 121.203125 441.191406 121.523438 442.230469 121.886719 C 443.265625 122.25 444.289062 122.65625 445.292969 123.105469 C 446.292969 123.554688 447.277344 124.046875 448.238281 124.578125 C 449.203125 125.109375 450.140625 125.679688 451.054688 126.289062 C 451.96875 126.898438 452.859375 127.546875 453.71875 128.230469 C 454.578125 128.914062 455.410156 129.632812 456.210938 130.386719 C 457.007812 131.140625 457.777344 131.929688 458.511719 132.746094 C 459.246094 133.5625 459.945312 134.410156 460.609375 135.289062 C 461.273438 136.164062 461.898438 137.066406 462.488281 137.996094 C 463.074219 138.925781 463.625 139.875 464.132812 140.851562 C 464.640625 141.824219 465.109375 142.820312 465.535156 143.832031 C 465.960938 144.847656 466.339844 145.878906 466.679688 146.921875 C 467.019531 147.96875 467.316406 149.027344 467.566406 150.097656 C 467.816406 151.167969 468.023438 152.246094 468.183594 153.335938 C 468.34375 154.421875 468.457031 155.515625 468.527344 156.613281 C 468.597656 157.710938 468.621094 158.808594 468.597656 159.90625 C 468.574219 161.007812 468.503906 162.101562 468.390625 163.195312 C 468.277344 164.289062 468.117188 165.375 467.910156 166.457031 C 467.707031 167.535156 467.457031 168.605469 467.160156 169.664062 C 466.867188 170.722656 466.527344 171.769531 466.144531 172.800781 C 465.761719 173.832031 465.339844 174.84375 464.871094 175.839844 C 464.40625 176.835938 463.898438 177.808594 463.347656 178.761719 C 462.800781 179.714844 462.210938 180.644531 461.585938 181.546875 C 460.960938 182.449219 460.296875 183.328125 459.597656 184.175781 C 458.898438 185.023438 458.164062 185.839844 457.398438 186.628906 C 456.628906 187.414062 455.832031 188.167969 455 188.886719 C 454.167969 189.609375 453.308594 190.292969 452.421875 190.941406 C 451.53125 191.585938 450.621094 192.199219 449.679688 192.769531 C 448.742188 193.339844 447.78125 193.871094 446.796875 194.363281 C 446.210938 194.65625 445.675781 195.019531 445.191406 195.460938 C 444.707031 195.902344 444.292969 196.402344 443.945312 196.957031 C 443.601562 197.515625 443.339844 198.109375 443.160156 198.738281 C 442.980469 199.367188 442.890625 200.011719 442.890625 200.664062 L 442.890625 203.953125 L 415.675781 203.953125 L 415.675781 200.664062 C 415.675781 200.011719 415.585938 199.367188 415.40625 198.738281 C 415.226562 198.109375 414.960938 197.515625 414.617188 196.957031 C 414.273438 196.402344 413.859375 195.902344 413.375 195.460938 C 412.890625 195.019531 412.355469 194.65625 411.769531 194.363281 C 410.132812 193.558594 408.5625 192.644531 407.054688 191.621094 C 405.550781 190.601562 404.121094 189.476562 402.769531 188.253906 C 401.417969 187.035156 400.160156 185.722656 398.992188 184.328125 C 397.824219 182.929688 396.757812 181.457031 395.796875 179.910156 C 394.832031 178.367188 393.980469 176.761719 393.242188 175.097656 C 392.5 173.433594 391.878906 171.722656 391.378906 169.972656 C 390.878906 168.222656 390.5 166.445312 390.246094 164.640625 C 389.992188 162.839844 389.863281 161.027344 389.859375 159.203125 C 389.878906 157.941406 389.953125 156.683594 390.089844 155.425781 C 390.226562 154.171875 390.421875 152.925781 390.675781 151.6875 C 390.929688 150.449219 391.238281 149.230469 391.609375 148.019531 C 391.976562 146.8125 392.402344 145.625 392.882812 144.457031 C 393.367188 143.289062 393.902344 142.148438 394.488281 141.03125 C 395.078125 139.914062 395.71875 138.828125 396.410156 137.769531 C 397.101562 136.714844 397.84375 135.691406 398.628906 134.707031 C 399.417969 133.71875 400.25 132.773438 401.128906 131.863281 C 402.003906 130.957031 402.925781 130.089844 403.882812 129.269531 C 404.84375 128.449219 405.835938 127.671875 406.871094 126.945312 C 407.902344 126.21875 408.964844 125.542969 410.0625 124.914062 C 411.160156 124.289062 412.28125 123.714844 413.433594 123.191406 C 414.582031 122.671875 415.753906 122.207031 416.949219 121.796875 C 418.144531 121.386719 419.355469 121.03125 420.582031 120.738281 C 421.808594 120.441406 423.046875 120.203125 424.296875 120.023438 C 425.546875 119.847656 426.804688 119.726562 428.0625 119.664062 Z M 428.0625 119.664062 " fill-opacity="1" fill-rule="nonzero"/><g clip-path="url(#ae150d4064)"><path fill="#000000" d="M 422.242188 81.902344 L 436.320312 81.902344 L 436.320312 97.390625 L 422.242188 97.390625 Z M 422.242188 81.902344 " fill-opacity="1" fill-rule="nonzero"/></g><path fill="#000000" d="M 369.546875 109.558594 L 379.503906 99.605469 L 390.453125 110.554688 L 380.5 120.511719 Z M 369.546875 109.558594 " fill-opacity="1" fill-rule="nonzero"/><path fill="#000000" d="M 468.105469 110.5625 L 479.054688 99.609375 L 489.011719 109.566406 L 478.0625 120.515625 Z M 468.105469 110.5625 " fill-opacity="1" fill-rule="nonzero"/></svg>